<?xml version="1.0" encoding="UTF-8"?>
<svg viewBox="0 0 1065.9122 1201.3978" xmlns="http://www.w3.org/2000/svg">
 <defs>
  <linearGradient id="b" x1="1039.3" x2="1117.2" y1="1019.4" y2="1168.6" gradientUnits="userSpaceOnUse">
   <stop stop-color="#0b2c17" offset="0"/>
   <stop stop-color="#0b2c17" stop-opacity="0" offset="1"/>
  </linearGradient>
  <radialGradient id="a" cx="879.6" cy="944.76" r="312.52" gradientTransform="matrix(1.4614 -.21732 .12244 .82333 -515.52 403.59)" gradientUnits="userSpaceOnUse">
   <stop stop-color="#327f4d" offset="0"/>
   <stop stop-color="#327f4d" offset=".77778"/>
   <stop stop-color="#327f4d" stop-opacity="0" offset="1"/>
  </radialGradient>
 </defs>
 <g transform="translate(-232.04 -54.301)">
  <path d="m689.76 353.68 128.39 4.1636 201.58 321.52c2.128 62.125-0.4395 111.43-15.236 174.31l11.815 65.159c-49.282 28.041-91.904 60.917-167.43 69.906l-17.477-37.903-120.55 17.346-172.85-166.18c-82.047-140.72 72.911-385.71 151.76-448.32z" fill="#fdd3b7"/>
  <path d="m1115.3 622.89c25.918-6.7071 58.159-14.777 60.419 76.659-31.56 102.28-89.497 148.67-141.5 120.5l81.081-197.16z" fill="#ffe6d5"/>
  <path d="m252.15 375.01c135.02-132.16 315.74-175.51 468.11-195.69l-288.57-51.14c109.5-28.805 348.93-166.06 555.42 99.282 82.43 29.565 171.75 50.4 221.56 121.32 34.748 122.1 85.705 240.04 76.731 373.37-23.854 80.913-80.413 132.58-126.21 193.86l-25.166-24.893-40.104 38.887-0.3542-52.306c-20.863-11.826-51.68 4.4638-79.646 12.705l-6.6537-33.924 14.671-175.43c-73.845-109.72-147.56-219.45-205.56-330.93l13.749 372.55c-83.426-108.57-154.16-222.37-140.43-370.92-59.537 94.32-129.79 218.92-139.59 367.7l-6.9135 11.201-2.5585 75.366-15.752 95.846c-70.176-122.2-39.416-254.95-32.909-385.17l-129.09 220.47c0.77707-128.65-6.4032-257.46 88.177-384.09l-198.9 21.926z" fill="#a15019"/>
  <path d="m1114.5 624.22c18.195-5.4121 35.986-18.868 58.424 60.127-10.819 54.977-37.666 171.08-139.22 138.01l26.077-59.76 54.719-138.38z" fill="#fdd3b7"/>
  <path d="m666.76 1054c-54.768-31.679 103.57-79.624 171.39-105.48l7.6531 39.384c62.858-20.381 122.97-42.126 171.09-69.831l-0.9227-30.737c25.853-1.9929 71.993-26.967 79.126-2.1824l-1.5172 33.36c35.494 97.377 51.581 37.065 72.84 86.583l114.08 60.533c-23.248 102.81-318.58 220.68-563.3 176.92-14.931-3.0331-28.438-10.044-38.899-25.564l5.4149-17.389c-4.9164-42.704 5.9959-89.189-17.184-127.53l0.22634-18.075z" fill="url(#a)"/>
  <path d="m832.5 953.57-99.971 12.512c98.181-44.085 266.95-76.648 189.93-274.98l59.071-73.101 38.386 68.383-13.816 169.1 11.426 62.341c-54.967 30.298-110.81 58.074-171.75 71.282l-13.27-35.542z" fill="#f95"/>
  <path d="m985.39 602.13c-12.179 92.875-103.93 140.69-122.41 15.307 28.64-112.99 90.384-108.18 122.41-15.307z" fill="#d4aa00"/>
  <path d="m835.33 548.15c12.501-23.696 36.913-22.177 60.961-21.431-8.666 33.459-37.902 62.83-21.051 101.36 56.381 4.2798 56.851 24.229 11.266 38.217 4.486 10.788 16.383 17.051 25.605 24.947-13.83 0.28102-24.615 8.0785-43.479-4.0698-32.602-17.813-36.403-73.84-33.302-139.02z" fill="#fff"/>
  <path d="m773.71 825.04c10.06 3.1394 80.983-13.556 83.49-16.973-20.789 4.0259-72.002 31.295-127.38 17.23 25.746 1.184 16.373-9.8257 43.889-0.25717z" fill="#f95"/>
  <path d="m769.82 838.63c0 4.7791-6.2116 8.6579-13.865 8.6579-6.073 0-11.206-2.3039-13.142-5.8983-3.6341-8.852 17.451-2.0003 27.007-2.7595z" fill="#fff"/>
  <path transform="translate(-5.2368,-.17144)" d="m973.57 735.48a63.34 21.688 0 1 1 -126.68 0 63.34 21.688 0 1 1 126.68 0z" fill="#ffa7a7"/>
  <path transform="translate(16.01 .042861)" d="m622.45 722.88a43.889 15.944 0 1 1 -87.779 0 43.889 15.944 0 1 1 87.779 0z" fill="#ffa7a7"/>
  <path d="m689.17 354.46 4.2054 101.82c-87.614 84.133-111.49 205.45-144.93 284.25 4.733-150.07 70.946-287.98 140.73-386.08z" fill="#f95"/>
  <path d="m666.34 598.58c-12.179 92.875-38.092 117.67-58.424 0 9.9726-120.22 43.074-100.46 58.424 0z" fill="#d4aa00"/>
  <path d="m569.92 612.92c-2.4254-39.726-4.0658-79.014 42.924-91.19l0.89636 107.41c56.362-20.493 33.904 19.119 13.866 32.28l14.105 17.96c-12.676 4.6158-17.216 10.324-31.085 5.2388-22.917-6.3319-29.363-43.617-40.708-71.698z" fill="#fff"/>
  <path d="m818.89 363.09 45.685 69.006 52.121 89.008-29.784-5.3746-35.205-57.317c-28.857 97.159-11.039 171.5-16.558 257.25-8.8202-115.32-18.137-230.31-16.259-352.57z" fill="#f95"/>
  <path d="m698.1 762.94c-8.4794 0-12.302 0.10496-12.815-5.5164-0.57068-6.2534-4.5418-13.385 3.9377-13.385 14.255 5.1502 26.931 19.184 8.8776 18.902z" fill="#f95"/>
  <path d="m1107.9 655.84c38.797-16.394 52.127 57.339 13.26 115.05-27.21 25.444-54.402 49.214-81.113 27.155l67.853-142.2z" fill="#f95"/>
  <path d="m880.32 564.04c29.607-64.573 67.012-17.716 102.55 2.5458l-17.21 32.974c-2.0045 41.157-25.719 56.45-48.365 51.295 8.16-7.8757-2.0407-21.814-29.987-21.89-7.7594-11.602-12.013-24.319-11.648-44.559l4.6552-20.366z" fill="#a40"/>
  <path d="m614.97 520.88 35.125 9.577 13.119 66.191c-3.5407 18.261-7.282 31.093-11.223 38.515-1.7497-11.619-7.6386-17.755-22.53-10.683-3.935-9.7316-8.0131-23.336-12.234-40.803l-2.257-62.796z" fill="#a40"/>
  <path d="m368.54 725.12c34.434-145.8 35.861-287.63 250.96-455.21-58.132 39.178-80.785 125.3-97.759 218.94-56.918 62.331-106.2 146.1-153.2 236.27z" fill="#2b1100"/>
  <path d="m559.68 265.07c-36.326 21.811-71.639 50.556-105.52 89.103-64.189-7.3671-135.93 13.774-206.1 28.974 82.219-51.242 182.94-92.332 311.61-118.08z" fill="#2b1100"/>
  <path d="m746.45 247.49c-22.18 19.396-51.688 78.262-55.165 105.31-44.409 41.716-126.2 229.17-147.41 371.73 27.618-186.05 29.273-388.91 202.57-477.03z" fill="#2b1100"/>
  <path d="m838.85 218.93c-33.823-13.136-64.944-32.679-103.82-33.823l-280.86-56.735c237.61-24.524 367.67 20.307 384.69 90.558z" fill="#2b1100"/>
  <path d="m816.56 284.58c-0.39385 143.41 1.6403 293.04 18.056 440.06-58.154-142.2-110.16-347.17-18.056-440.06z" fill="#2b1100"/>
  <path d="m902.19 276.86c138.81 81.452 126.27 270.69 120.75 403.93-18.144-118.39-36.77-262.34-120.75-403.93z" fill="#2b1100"/>
  <path d="m521.73 905.12c-16.305-87.869-17.798-175.54 0.98746-262.94l17.492 82.92 3.1034 87.042-21.583 92.982z" fill="#2b1100"/>
  <path d="m1110.8 381.31c48.902 230.15-35.359 350.14-105.24 470.12 77.078-153.38 92.399-311.66 105.24-470.12z" fill="#2b1100"/>
  <path d="m1118 586.67c23.85-46.503 32.39-76.066 38.476-150.91 11.959 82.617 13.614 128.37 2.7924 205.15l12.553 25.688c65.141-70.827 33.417-224.33 16.007-339.12 55.183 71.453 108.15 273.48 96.771 389.02-23.892 86.903-72.285 151.26-134.86 202.57l3.6024-44.728-56.178 54.52-4.2161-49.476-11.456-9.0416-66.015 20.182-11.225-37.931 25.873-29.698c87.745 26.647 126.57-68.233 141.47-128.11-6.1102-31.117 2.4731-75.079-57.836-75.027l4.242-33.094z" fill="#2b1100"/>
  <path d="m485.75 236.11c-51.8 49.513-12.025 63.013 20.391 75.844 176.1 69.705 570.57 79.045 623.98-25.097 45.599 28.608 90.602 57.495 97.754 104.07-74.416-48.867-178.1 9.1268-389.9-1.146-7.3244-0.35525-19.363-33.948-22.364-1.3179-37.891-2.6261-79.089-7.4697-124-15.433-0.75596-14.416-1.9185-17.845-16.396-3.0159-60.724-11.569-128.06-28.811-202.95-53.827-98.962-22.738-112.51-2.2655-179.24 27.422l192.71-107.49z" fill="#ffb380"/>
  <path d="m706.15 1025.1c39.173-34.441 87.201-44.38 131.33-65.1l7.1944 31.156-78.009 23.397-60.517 10.547z" fill="#0b2c17"/>
  <path d="m1013 886.66 73.495-14.062 7.9965 11.729 4.7013 52.936 31.571 47.531 32.452 16.571 119.87 68.706c-22.85 51.609-119.48 136.09-286.35 162.48-14.48-103.87 38.219-59.613 0.44204-102.67l-18.523 14.102c32.065-28.205-15.539 4.0047-21.061-119.79-5.0069-42.775 19.928-9.6802 11.088-57.856-0.93656-5.1039-1.6376-19.33-17.237-14.173l71.852-33.129-10.298-32.368z" fill="url(#b)"/>
  <path d="m851.73 1038.3c-28.748 12.564-144.46 37.622-156.72 16.851 28.748-12.564 256.32-71.445 156.72-16.851z" fill="#0b2c17"/>
  <path d="m788.8 1254.3c-5.597-6.22-12.402-22.563-11.272-27.072 0.99792-3.982 6.7838-13.028 11.801-18.45 5.6771-6.1355 6.9812-10.256 9.1209-28.816 1.2921-11.208 0.8216-37.855-0.85518-48.435-0.34868-2.2-1.2781-7.825-2.0653-12.5s-2.3624-14.125-3.5003-21-2.7252-14.493-3.5272-16.928c-1.8172-5.5183-1.8348-7.0719-0.08011-7.0719 2.2426 0 7.1113 16.196 10.672 35.5 0.60869 3.3 1.9438 8.925 2.9669 12.5 3.4852 12.178 5.3091 26.065 5.3973 41.096 0.0561 9.5617-0.30766 15.08-1.0547 16-0.62719 0.7725-1.8754 4.992-2.7738 9.3768-1.9814 9.6703-4.3094 14.696-7.4246 16.028-2.0142 0.8612-2.2695 1.5259-1.8399 4.7892s0.05566 4.2364-2.6831 6.9999c-8.6785 8.7573-8.9989 13.834-1.9931 31.581 2.5856 6.5502 2.1392 9.7681-0.88836 6.4035zm-59.243-13.523c-5.1632-10.643-5.3202-12.598-1.5424-19.2 1.7464-3.0525 3.5923-5.5499 4.1019-5.5499s0.92661-0.3953 0.92661-0.8784-3.4875-1.4377-7.75-2.1214-9.775-1.5978-12.25-2.0315c-6.9221-1.2127-17.205-4.0669-20.154-5.5942-4.5432-2.3525-6.6159-1.7452-8.8254 2.5858-2.7921 5.4729-2.5431 9.018 0.97449 13.874 2.7044 3.7333 9.6963 9.1659 11.797 9.1659 0.45722 0 1.7703 0.8748 2.9179 1.944 2.8067 2.6148 8.0994 4.7345 15.013 6.0125 3.1459 0.5816 6.3731 1.7108 7.1717 2.5093 1.2693 1.2693 1.1074 1.583-1.2863 2.4931-1.5061 0.5726-4.2608 1.0411-6.1216 1.0411-4.4462 0-19.176-4.6766-22.987-7.2982-4.8874-3.3622-24.181-23.121-24.954-25.555-0.76872-2.422 0.87123-5.666 5.2396-10.365l2.5272-2.7183-3.9867-4.325c-5.2194-5.6624-5.5628-10.54-1.4748-20.946 3.5341-8.9962 3.875-10.38 6.2284-25.292 3.5139-22.265 1.48-54.703-3.9028-62.244-2.9299-4.1047-8.3778-8.7826-12.514-10.745-4.2716-2.027-4.4764-3.3501-1.6639-10.75 1.0997-2.8934 1.9997-5.5384 2-5.8778s-1.912-1.8826-4.2495-3.4292c-6.3218-4.183-11.75-10.223-11.75-13.075 0-1.3521 0.86924-4.1622 1.9316-6.2447 2.6842-5.2615 16.772-19.682 24.304-24.88 20.794-14.347 38.121-25.277 43.884-27.682 3.6411-1.5193 7.8248-3.5527 9.2972-4.5186l2.6771-1.7562-6.5346-0.61021c-8.0739-0.75395-15.803-5.3148-19.56-11.542-1.375-2.2792-6.7464-8.082-11.936-12.895s-11.94-11.26-15-14.327c-8.7133-8.733-30.942-29.055-37.564-34.342-3.3-2.6348-8.25-6.9122-11-9.5053s-8.825-7.8074-13.5-11.587c-16.484-13.328-25.552-21.313-30.322-26.703-2.6519-2.9966-9.1313-9.2368-14.399-13.867s-12.243-10.894-15.5-13.919-6.2378-5.6156-6.6223-5.757c-0.73673-0.27089-3.2088 9.1579-3.738 14.257-0.17124 1.65-1.708 9.3-3.4149 17s-3.522 16.475-4.0334 19.5c-0.73201 4.3298-2.89 38.816-2.9568 47.25-0.02013 2.5448-1.8491 2.1463-4.5896-1s-11.424-17.026-11.424-18.261c0-0.45205-0.36914-0.9719-0.82031-1.1552-0.80028-0.32519-7.8141-14.33-12.186-24.333-3.9236-8.9767-9.727-25.955-10.435-30.528-0.38065-2.4598-1.7306-8.2974-2.9999-12.972s-3.0248-12.775-3.9013-18-2.5049-14.9-3.6189-21.5c-2.0843-12.349-4.2853-33.962-6.3138-62-0.64101-8.86-1.1334-36.304-1.1035-61.5 0.04373-36.764 0.35675-47.228 1.6304-54.5 0.86693-4.95 1.8731-11.475 2.236-14.5 1.1588-9.6607 4.5576-30.184 6.6754-40.309 1.1284-5.395 1.8143-10.047 1.5242-10.337s-1.3492 0.74897-2.3535 2.3092-4.4105 6.295-7.5694 10.522-9.3916 13.119-13.851 19.761-8.8555 12.633-9.7702 13.315c-2.8459 2.1203-11.638 16.465-21.877 35.693-1.917 3.6-4.7351 8.5706-6.2624 11.046-22.857 37.039-50.322 95.5-54.454 115.9-2.041 10.081-7.3657 9.0668-8.6838-1.6536-0.38892-3.1632-1.4349-9.1262-2.3244-13.251s-2.0773-10.875-2.6396-15c-1.2826-9.4086-1.6628-50.586-0.61307-66.383 0.94287-14.188 1.4383-28.485 2.1699-62.617 0.82578-38.525 2.1484-52.154 6.5019-67 1.0483-3.575 2.8416-11.45 3.985-17.5 2.4344-12.88 5.2553-23.174 9.8659-36 0.59312-1.65 2.2881-7.05 3.7667-12s3.288-9.9736 4.021-11.164 3.2002-7.265 5.4828-13.5 4.7578-12.461 5.5005-13.836 2.6528-5.425 4.2446-9 5.7728-11.225 9.2911-17c3.5183-5.775 7.7433-13.182 9.3888-16.46s4.0044-7.0981 5.242-8.4898 2.2683-2.9849 2.2906-3.5405 1.3724-2.5682 3-4.4724 2.9671-3.9292 2.9766-4.5 1.1345-2.0975 2.5-3.3927 2.4827-2.7548 2.4827-3.2435c0-1.2253-24.39 0.45853-38 2.6235-5.013 0.79741-33.776 4.3724-44 5.4688-5.775 0.61932-12.14 1.553-14.145 2.0748s-7.8548 1.5944-13 2.3836c-18.892 2.8976-33.551 5.624-41.355 7.6913-4.4 1.1656-10.025 2.4662-12.5 2.8902s-12.069 2.651-21.319 4.949c-16.617 4.1279-19.681 4.3932-19.681 1.7046 0-1.6577 11.859-16.58 17.627-22.18 19.935-19.356 51.85-42.474 84.873-61.482 8.8-5.0651 18.251-10.937 21.002-13.048s6.1264-4.3376 7.5-4.9474 6.9975-3.7827 12.498-7.0509 11.991-6.9063 14.424-8.0846 6.9333-3.7492 10-5.7131 9.1171-5.0659 13.445-6.8932 9.0532-4.1558 10.5-5.1746 5.1055-2.9798 8.1305-4.3579c20.194-9.1999 25.787-11.657 28-12.302 1.375-0.40045 6.1-2.4068 10.5-4.4586 13.626-6.354 16.684-7.5987 27-10.99 5.5-1.808 11.568-4.1239 13.485-5.1465s4.1669-1.862 5-1.8654 2.6398-0.58662 4.0148-1.2961c4.9574-2.5578 13.679-5.672 23-8.212 5.225-1.4239 11.975-3.5011 15-4.6159 5.2066-1.9188 16.694-4.9754 25.5-6.7852 2.2-0.45212 6.025-1.3296 8.5-1.95s11.25-2.7182 19.5-4.6618 16.35-3.9573 18-4.4749c3.6674-1.1505 26.134-4.9852 29.25-4.9926 5.0763-0.01202 1.586-1.7429-9.5-4.7111-6.4625-1.7303-13.325-3.4563-15.25-3.8356s-4.0048-1.0949-4.6218-1.5902c-1.0427-0.83706-33.971-7.227-53.378-10.358-9.6474-1.5566-28.407-4.8351-41-7.1655-4.675-0.86511-14.575-2.4032-22-3.418s-16.2-2.2943-19.5-2.8434c-10.813-1.7991-28.449-3.2487-63-5.1787-11-0.61445-20.338-1.3209-20.75-1.5699-1.1895-0.71803-0.87021-4.3347 0.3827-4.3347 0.62299 0 1.8983-0.88273 2.834-1.9616s5.0385-3.1602 9.1173-4.625 9.216-3.4865 11.416-4.4925 5.8-2.4886 8-3.2948c5.8034-2.1266 22.035-8.3184 29-11.062 10.504-4.1387 10.006-3.9596 14-5.033 1.65-0.4435 3.45-1.1484 4-1.5664s3.25-1.4453 6-2.2828 8.15-2.6072 12-3.9326c13.911-4.789 17.321-5.7488 20.425-5.7488 1.736 0 4.3756-0.86037 5.8658-1.9119s7.6595-2.8974 13.71-4.1019 14.375-3.233 18.5-4.5078 11.1-3.0866 15.5-4.0262 13.175-3.0202 19.5-4.6234c23.892-6.0563 37.397-8.3729 54.5-9.349 6.05-0.34529 13.025-1.0261 15.5-1.5128s9.225-1.091 15-1.3428 14.939-1.0012 20.365-1.6654c13.161-1.6112 39.627-0.48356 60.528 2.5788 7.3638 1.0789 21.007 4.8858 28.607 7.982 29.795 12.139 35.899 15.395 63.865 34.065 5.7943 3.8682 13.817 9.078 22.968 14.916 4.8584 3.0992 22.781 16.283 23.666 17.409 0.275 0.34979 5.8991 5.5758 12.498 11.613s17.762 16.715 24.807 23.727 13.194 12.75 13.666 12.75 3.9044 3.7125 7.6289 8.25 9.9509 11.408 13.836 15.268 9.6383 10.194 12.784 14.075c4.7382 5.8454 6.4546 7.2439 10 8.148 2.354 0.60027 9.0049 2.2635 14.78 3.6961 18.486 4.5857 28.007 7.2299 34.5 9.5814 2.75 0.99589 6.35 2.0413 8 2.3232 2.7377 0.46765 17.139 6.7973 27 11.867l22.5 11.537c19.688 10.089 29.373 15.734 40.254 23.459 3.7145 2.6373 7.3145 4.7973 8 4.7999s2.9589 1.5776 5.0521 3.5 4.0439 3.4952 4.3352 3.4952c1.3846 0 21.289 15.01 24.986 18.842 16.734 17.346 24.32 27.105 35.854 46.126 6.1631 10.164 15.519 28.177 15.519 29.879 0 0.57701 1.0722 4.5598 2.3828 8.8507s3.1363 11.177 4.0572 15.302c2.0362 9.12 5.4965 22.044 10.709 40 5.8696 20.218 7.4274 26.518 9.2723 37.5 0.9239 5.5 2.0914 11.575 2.5943 13.5s1.8066 8 2.8969 13.5c2.3289 11.747 5.332 24.892 8.188 35.839 1.1248 4.3112 1.8248 8.4126 1.5556 9.1142s0.3761 5.4992 1.434 10.661 2.3464 12.311 2.8631 15.886c1.7167 11.878 7.086 41.454 8.0906 44.566 1.129 3.498 1.5132 9.8108 2.5343 41.632 0.7836 24.42 0.7058 25.082-6.1514 52.301-0.8313 3.3-1.8802 7.575-2.3309 9.5-1.0213 4.3618-8.1387 20.507-12.564 28.5-1.8269 3.3-4.5625 8.25-6.0789 11-2.7798 5.0411-13.355 21.572-14.394 22.5-0.6912 0.61734-2.2946 3.2782-5.1221 8.5-1.1913 2.2-3.4005 5.575-4.9094 7.5s-5.2774 7.325-8.3743 12c-8.0992 12.226-16.569 24.319-17.477 24.954-0.6733 0.47051-10.164 11.724-27.177 32.223-2.475 2.9822-8.3918 9-13.149 13.373s-12.796 11.776-17.864 16.451c-12.581 11.604-30.33 24.33-35.72 25.611-1.5219 0.3617-3.5148 1.3059-4.4287 2.0983-1.9311 1.6744-6.9944 1.3685-7.5944-0.45873-0.2257-0.68721 0.3705-1.5491 1.3248-1.9153 3.5189-1.3503 9.0706-8.8576 14.181-19.177 2.8875-5.8302 5.25-11.192 5.25-11.915s0.7173-2.409 1.594-3.7471c3.2052-4.8918 0.6923-4.6549-2.9272 0.27597-2.0517 2.7949-4.1294 5.2269-4.6171 5.4044s-4.4144 3.7203-8.726 7.8728-8.6796 7.8725-9.7066 8.2666c-2.4056 0.9231-1.8611 4.6635 2.6666 18.318 4.9815 15.023 7.6342 18.97 15.067 22.416 7.4216 3.4415 19.343 6.5528 30.042 7.8407 4.5617 0.54912 8.2404 1.511 8.7176 2.2793 1.1962 1.9258 2.8904 10.359 2.8904 14.388 0 3.1457 0.4322 3.6654 4.75 5.712 3.96 1.877 4.9024 2.8663 5.6661 5.9481 1.0061 4.0599 2.3722 4.8449 16.084 9.2418 3.85 1.2346 10.375 3.8078 14.5 5.7181 8.8229 4.0862 16.38 7.1602 31.75 12.915 6.6823 2.5019 11.25 4.7591 11.25 5.5593 0 0.741 0.5161 1.3473 1.1469 1.3473 1.0218 0 25.762 10.739 26.752 11.612 0.2194 0.1935 0.4444 1.5974 0.5 3.1197s0.6412 2.7678 1.3012 2.7678 1.7318 0.5318 2.3819 1.1819c1.7395 1.7395-2.0853 7.916-4.6681 7.538-1.0526-0.154-3.7138-0.5276-5.9138-0.8301-5.005-0.6883-7.8529-1.7113-18.5-6.6459-8.3849-3.8862-47.151-19.731-51.991-21.25-1.3701-0.43-5.3634-2.1113-8.8737-3.7362s-9.3066-4.0148-12.88-5.311-7.2659-3.0521-8.2049-3.9019-2.165-1.545-2.7245-1.545c-0.8978 0-13.273 23.858-13.359 25.756-0.0187 0.4091-0.9034 2.5439-1.9661 4.7439s-1.9474 4.5649-1.9661 5.2553-2.5495 8.5655-5.6241 17.5-6.2584 18.382-7.0752 20.995c-0.8266 2.6438-2.0948 4.75-2.8601 4.75-0.7563 0-1.8137 0.7838-2.3498 1.7417s-1.3073 1.409-1.7139 1.0025c-0.7679-0.768 16.916-55.708 21.323-66.244 1.3802-3.3 3.893-8.4591 5.5841-11.465 2.595-4.612 3.0831-6.5581 3.1286-12.473 0.058-7.5403-0.6948-8.4696-5.8192-7.1835-2.304 0.5783-11.568 7.2561-12.877 9.2818-0.4123 0.6384-2.8873 2.1753-5.5 3.4153s-6.8685 4.2054-9.4575 6.5895-5.2244 4.3347-5.8565 4.3347-4.364 3.0882-8.2929 6.8629-9.0834 8.2455-11.454 9.9355-9.1211 7.6435-15 13.23-14.289 12.565-18.689 15.507c-14.238 9.5218-22.913 15.598-27 18.911-2.2 1.7835-5.0944 3.8223-6.432 4.5308-2.3104 1.2236-25.371 17.847-34.357 24.766-3.5807 2.7572-9.2793 6.466-16.529 10.757-7.0502 4.1733-14.768 8.9742-15.183 9.4446-1.5924 1.8051-8.366 6.2074-14 9.0988-3.575 1.8348-9.875 5.3961-14 7.914s-10.65 5.889-14.5 7.4914c-7.499 3.1211-18.288 8.5891-21.797 11.047-1.1814 0.8275-2.7813 1.5046-3.5553 1.5046s-5.8024 2.2124-11.174 4.9164-12.401 5.6866-15.62 6.6281-8.0446 2.5898-10.723 3.6629c-8.9188 3.5736-32.455 9.707-37.446 9.7584-1.8237 0.0188-4.0979 0.4528-5.0539 0.9644-2.2224 1.1894-5.0354-0.2486-2.9871-1.5271 1.6126-1.0065 1.0185-0.8483 12.554-3.3432 5.0586-1.094 10.853-2.6809 12.877-3.5264s5.9848-2.1767 8.8026-2.9582c10.268-2.8476 25.4-8.4375 32.445-11.985 3.9686-1.9985 9.3449-4.4753 11.947-5.5038s10.852-4.8438 18.334-8.4782 13.89-6.608 14.242-6.608 5.9171-3.15 12.367-7 12.078-7 12.507-7 6.1258-3.6 12.661-8 12.308-8 12.83-8c0.92807 0 15.848-10.059 21.791-14.692 1.65-1.2861 3.45-2.6869 4-3.1128 4.0908-3.1675 17.468-12.721 24.5-17.498 4.675-3.1755 12.458-8.6815 17.295-12.236s8.938-6.4617 9.1135-6.4617c2.2602 0 27.293-19.79 33.117-26.181 1.6637-1.8257 5.1906-4.8944 7.8376-6.8194s7.6236-6.0766 11.059-9.2257 7.5588-6.7287 9.1624-7.9545 5.1317-4.1885 7.84-6.5837 6.4065-4.9744 8.2183-5.7314 6.7959-4.4011 11.076-8.0979 7.9482-6.8547 8.1517-7.0176 0.07-1.8954-0.2967-3.8502c-0.8495-4.5285-3.4994-6.1949-11.073-6.9641-9.6798-0.9829-19.097-3.568-23.752-6.5196-5.2723-3.3436-16.091-17.491-19.186-25.09-1.2243-3.0059-2.9372-7.0402-3.8064-8.9652-3.5134-7.7813-5.7248-15.238-6.3612-21.449-0.3691-3.603-1.0385-6.5508-1.4876-6.5508s-1.8749 1.0125-3.1686 2.25c-4.2365 4.0526-17.853 14.214-21.309 15.901-1.8598 0.90827-5.2733 3.2708-7.5856 5.25s-4.5876 3.5986-5.0563 3.5986c-1.171 0-16.598 10.702-20.288 14.074-5.1073 4.6674-34.327 19.59-42.256 21.58-1.4723 0.3695-3.142 1.0455-3.7105 1.5022s-5.0836 2.9189-10.034 5.4716-13.654 7.0558-19.341 10.007-10.92 5.3656-11.628 5.3656-1.8466 0.675-2.5313 1.5c-1.5172 1.8281-6 1.9949-6 0.2232 0-0.7023 3.7125-3.2227 8.25-5.6011l10.75-5.64c1.375-0.7238 5.65-2.8715 9.5-4.7728s10.6-5.2718 15-7.49 11.6-5.5299 16-7.3593 10.25-4.512 13-5.9615c11.673-6.1526 17.061-9.2484 18-10.342 0.55-0.64038 3.6912-3.1651 6.9805-5.6106s6.781-5.1213 7.7595-5.9463 4.4096-3.075 7.6247-5c11.262-6.7427 20.182-13.032 27.876-19.651 13.912-11.971 12.849-9.7794 13.559-27.956 0.9074-23.235-0.3617-26.523-10.198-26.418-1.9808 0.02117-4.2765-0.03349-5.1015-0.12146s-6 0.83442-11.5 2.0498-13.375 2.8961-17.5 3.735c-11.381 2.3146-14.853 3.2385-22.802 6.0681-6.7293 2.3954-7.2781 2.8028-7 5.1964 0.4155 3.5771 3.2718 3.7664 10.557 0.70001 12.201-5.1355 43.715-11.399 47.494-9.4398 3.7359 1.937 1.7786 4.8734-7.8903 11.837-6.2752 4.5195-16.708 10.667-19.6 11.548-1.2428 0.37881-2.9347 1.2592-3.7597 1.9565s-3.75 2.4589-6.5 3.9147c-5.0547 2.676-15.159 8.7812-17 10.271-1.2653 1.0245-17.876 9.3096-18.664 9.3096-0.5157 0-7.4769 3.2193-30.479 14.095-3.3786 1.5975-6.5868 2.9046-7.1292 2.9046-1.0499 0-10.098 3.801-16.728 7.0274-2.2 1.0706-7.825 3.4759-12.5 5.3452s-12.855 5.2066-18.177 7.4162-15.898 6.1392-23.5 8.7322-14.273 5.0462-14.823 5.4514c-1.3789 1.016-21.443 7.5692-30.534 9.973-4.1063 1.0857-9.941 2.7046-12.966 3.5975s-7.75 2.2158-10.5 2.9396c-11.966 3.1498-16.243 4.3976-20 5.8347-2.2 0.8416-8.4584 2.5701-13.907 3.8412-8.8092 2.0549-10.111 2.6453-11.746 5.3263-3.3269 5.4554-2.4971 11.407 2.7834 19.963 5.0214 8.1368 4.8781 7.0008 2.7234 21.588-0.4468 3.0249-0.15921 3.7301 1.9902 4.8804 1.3818 0.7396 3.5574 1.0878 4.8346 0.7738s6.3722-1.4604 11.322-2.5476 11.475-2.662 14.5-3.4996 8.2-2.1831 11.5-2.9902 8.475-2.436 11.5-3.62 9.8605-3.4719 15.19-5.0842 12.079-3.8036 15-4.8695 8.5858-2.8929 12.59-4.0597 8.7287-2.9405 10.5-3.9416c4.4056-2.4899 17.538-6.5938 18.386-5.7458 0.89499 0.895-2.4673 3.3732-5.6652 4.1755-1.375 0.345-5.7273 2.172-9.6719 4.06s-7.6244 3.4327-8.1775 3.4327c-1.4613 0-43.102 13.761-46.651 15.417-3.6497 1.7029-27.504 7.5835-30.762 7.5835-1.2859 0-2.7655 0.4-3.288 0.889s-3.425 1.335-6.45 1.8802-14.275 3.2494-25 6.0092-22.952 5.3238-27.171 5.6976l-7.6708 0.6798 1.0864 3.1721c0.59749 1.7447 1.6715 4.0822 2.3867 5.1945 2.9359 4.5662 5.2492 22.083 6.8642 51.978 0.29713 5.5 0.78203 11.894 1.0776 14.21s0.55298 10.64 0.57213 18.5c0.03974 16.306-1.4218 24.339-6.1061 33.557-1.6716 3.2894-3.0392 6.4876-3.0392 7.1071 0 0.7473 2.8798 1.1263 8.559 1.1263 4.7697 0 8.3146 0.3955 8.0069 0.8933-0.30364 0.4913-4.615 1.2148-9.5807 1.6079-8.5607 0.6775-9.2724 0.916-13.733 4.6017-2.5873 2.138-5.4787 5.3972-6.4255 7.2426-1.5323 2.9867-1.5711 3.8546-0.35288 7.9023 0.75266 2.501 2.0789 5.9209 2.9472 7.6 1.9905 3.8491 2.0339 7.1521 0.09409 7.1521-0.85284 0-2.9812-3.085-5.0015-7.2497zm12.661-35.157c0.37143-2.5895 1.1445-5.2735 1.718-5.9644 5.6696-6.8315 5.7366-73.192 0.10705-106.13-0.56404-3.3-2.2132-8.3914-3.6647-11.314l-2.6392-5.3142-5.0983 0.5022c-21.897 2.1572-36.455 1.9152-39.98-0.6647-1.3133-0.9612 2.5724-1.238 18.957-1.3507 12.844-0.0883 21.003-0.5365 21.657-1.1897 0.73062-0.7306 0.23769-2.0109-1.6278-4.2279-2.4482-2.9095-2.6204-3.6692-2.0251-8.9309 0.58462-5.1673 0.29519-6.5503-2.8526-13.63-4.2317-9.5181-5.264-14.545-3.5505-17.289 0.68692-1.0999 0.93101-2.3178 0.54241-2.7064-0.80359-0.8036-11.72 1.4984-13.168 2.7766-1.31 1.157-10.849 1.0559-14.017-0.1485-2.4969-0.9493-2.54-1.0981-1.1156-3.8527 1.4152-2.7368 22.099-16.388 33.583-22.165 2.475-1.245 4.725-2.5407 5-2.8793s10.064-5.4709 21.753-11.405c19.243-9.7688 38.936-18.261 46.693-20.135 2.9933-0.72326 17.971-6.3162 24.804-9.2621 3.6858-1.5891 4.5585-2.6954 2.9235-3.7058-1.5698-0.97017-12.736 2.2773-30.674 8.9205-9.9 3.6666-22.725 8.3783-28.5 10.47-10.902 3.9496-28.756 11.563-30.502 13.007-0.55137 0.456-3.4764 1.7975-6.5 2.9811-17.756 6.9513-49.242 24.54-61.498 34.355-12.486 9.9991-14.802 16.414-7.3824 20.444 6.3617 3.4561 7.9977 5.4486 8.0576 9.8138 0.03099 2.2546-0.48404 5.109-1.1445 6.3431-1.7503 3.2705-0.5864 6.3228 3.9865 10.454 4.3321 3.9138 7.8226 11.965 9.7993 22.603 2.6563 14.296 2.9279 17.282 2.593 28.5-0.35748 11.971-0.48275 13.447-1.7826 21-0.37859 2.2-0.88664 5.35-1.129 7s-0.95135 6.375-1.5756 10.5-0.86076 10.847-0.52565 14.937c0.50653 6.1826 1.2413 8.4995 4.3562 13.737 3.6374 6.1156 3.9807 6.3898 11.747 9.3814 4.4 1.6949 10.025 3.4686 12.5 3.9415s5.7926 1.3519 7.3724 1.9534 4.2798 1.325 6 1.6077 5.1526 0.881 7.6276 1.3294c7.624 1.3815 8.4143 1.0116 9.1753-4.294zm17.825-134.64c1.375-0.5255 6.7007-2.043 11.835-3.3723s9.542-2.624 9.795-2.8771-0.0545-2.5039-0.6835-5.0019c-0.92502-3.6736-0.85251-5.535 0.37929-9.7371 1.7544-5.9848 1.5137-6.9925-3.0022-12.568-1.828-2.2566-3.3235-4.8737-3.3235-5.8157s-0.42135-2.5001-0.93634-3.4624c-1.3538-2.5296 0.33501-8.8115 2.9349-10.917 1.8068-1.463 1.9616-1.9867 0.85409-2.8892-1.3538-1.1032-12.095 0.4825-14.865 2.1945-0.65029 0.4019-7.4643 2.1529-15.142 3.8912l-13.96 3.1605-2.8992 4.9641c-1.8446 3.1584-2.5513 5.312-1.9428 5.9204 0.526 0.526 0.95636 1.5702 0.95636 2.3205s1.2246 3.9228 2.7212 7.0501c2.3395 4.8882 2.7253 6.9715 2.75 14.849 0.03052 9.7285 0.01844 9.6934 4.2712 12.428 2.224 1.4303 4.2087 1.6808 10.258 1.295 4.125-0.2631 8.625-0.9083 10-1.4337zm-35.5-50.647c2.75-0.7818 7.925-2.0098 11.5-2.7289s7.85-1.8496 9.5-2.5124 3.225-1.2432 3.5-1.2901c0.275-0.0468 1.948-0.6902 3.7179-1.4297s3.7553-1.3445 4.4121-1.3445 3.4838-0.6379 6.2821-1.4175 8.6879-2.2002 13.088-3.157c7.1411-1.5528 29.405-7.1758 41.5-10.481 10.953-2.9933 18.101-5.2989 18.518-5.9725 0.43625-0.7058-2.548-23.054-3.1893-23.883-0.33235-0.42984-3.4802 0.44152-16.828 4.6582-14.655 4.6295-30.182 10.81-38.5 15.324-1.925 1.0448-7.1 3.5903-11.5 5.6567-15.937 7.4849-41.046 20.47-43 22.237-1.1 0.995-4.5875 3.2529-7.75 5.0175s-5.75 3.418-5.75 3.6742c0 0.6961 8.8007-0.731 14.5-2.3511zm143.92-39.762c8.8439-3.0011 19.905-6.8426 24.58-8.5366s10.525-3.7799 13-4.6352 7.65-3.0308 11.5-4.8345c11.857-5.5546 13.822-6.3619 19.379-7.9594 2.9582-0.85049 5.8832-1.9366 6.5-2.4135s7.8714-3.441 16.121-6.5869c16.693-6.3652 42.005-18.426 50.618-24.118l5.6177-3.7127-3.3545-13.068c-1.845-7.1871-4.1152-19.28-5.0448-26.873s-1.9723-13.806-2.317-13.806-2.1532 1.575-4.0189 3.5c-2.529 2.6092-4.2332 3.5-6.6962 3.5-3.9424 0-4.0276-0.63813-0.90722-6.796 2.5096-4.9524 7.6034-25.731 7.6034-31.016 0-1.689 1.5241-10.86 3.387-20.38 4.6756-23.894 5.6415-29.464 6.2096-35.809 0.2709-3.025 1.4138-11.35 2.5397-18.5 1.3408-8.5141 2.4047-22.489 3.0832-40.5l1.036-27.5-4.2261-8.5c-2.3243-4.675-5.3442-10.525-6.7109-13-6.3561-11.511-9.7257-17.74-11.09-20.5-0.8153-1.65-3.3236-5.8821-5.5739-9.4047l-4.0915-6.4047-2.1416 8.9047c-1.1779 4.8976-2.4826 9.8047-2.8994 10.905-6.3759 16.827-10.572 23.988-18.371 31.351-2.5348 2.3933-7.5434 5.874-11.13 7.735l-6.5214 3.3835 6 0.02102c9.3843 0.03288 9.5 0.05179 9.5 1.5522 0 0.78034-1.2375 1.6898-2.75 2.0209-4.3461 0.95157-12.248 3.7758-12.265 4.3835-0.00842 0.30385-0.41556 1.1847-0.90474 1.9573-1.1593 1.8311-16.636 3.1454-24.08 2.0448-3.025-0.44723-9.55-1.342-14.5-1.9885-19.537-2.5514-28.079-5.4548-29.696-10.093-0.77012-2.2092-2.268-3.5664-5.4336-4.9233-2.4498-1.0501-4.3704-2.5482-4.3704-3.4089 0-1.8922-0.09024-1.8943 4.6279 0.10653 3.7438 1.5876 16.863 5.3059 18.845 5.3408 0.53487 0.00943-0.14013-0.75593-1.5-1.7008-3.4504-2.3974-10.848-10.633-14.749-16.421-3.0292-4.4939-3.5954-4.8667-7.5-4.937-5.5999-0.10087-10.725-2.0403-12.515-4.7359-1.325-1.9956-1.2838-2.188 0.46921-2.188 1.0571 0 2.4779 0.5559 3.1573 1.2353 0.77691 0.77691 5.2114 1.3642 11.95 1.5825 8.9639 0.29047 12.271-0.06058 20.24-2.1484 11.978-3.1384 19.522-6.4548 24.375-10.716 7.8122-6.8592 6.5505-11.63-4.629-17.505-9.6842-5.0889-19.878-5.6965-34.953-2.0832-17.774 4.2601-27.033 10.028-28.319 17.642-0.86276 5.1066-2.9134 4.1203-2.2176-1.0666 0.86344-6.4374 3.9623-9.5366 17.493-17.495 0.1509-0.08875-0.4116-2.795-1.25-6.0138-2.2689-8.711-1.8974-20.177 1.3264-40.932 2.4481-15.761 13.021-39.759 21.169-48.05 2.1353-2.1726 3.9044-4.2412 3.9314-4.5969 0.08214-1.0828-16.867-3.1229-21.554-2.5945-6.106 0.68824-14.725 6.1926-19.614 12.526-2.2436 2.9065-5.9816 9.075-8.3066 13.708s-4.5083 8.1422-4.8517 7.7988c-1.3506-1.3506-0.50645-7.6209 1.7851-13.261 1.3252-3.2614 2.6994-7.2497 3.0537-8.8629s2.3076-4.8799 4.3405-7.2593c3.6625-4.2866 3.2507-4.3963-2.0414-0.54352-3.1835 2.3177-4.854 1.499-2.4228-1.1874 0.9133-1.0092 1.6605-2.3771 1.6605-3.0399s1.5866-2.1411 3.5258-3.2853c3.8893-2.2947 6.0757-5.3624 4.5112-6.3294-0.53262-0.32918-2.8274 0.3499-5.0996 1.5091-6.4336 3.2822-5.6002 1.7373 1.3234-2.4533 4.97-3.0081 5.6328-3.6737 3.2582-3.272-2.8374 0.48002-2.8856 0.43148-1-1.0079 1.0895-0.83173 3.3456-2.1043 5.0135-2.828 7.742-3.3593 33.946-4.672 49.428-2.4763 4.0355 0.57234 7.4581 0.91981 7.6058 0.77215s-0.94657-2.0576-2.4316-4.2443c-2.3158-3.41-3.2647-4.0055-6.6676-4.1845-32.085-1.6876-37.871-1.6018-46.468 0.68879-9.2501 2.4646-16.488 5.9104-19.275 9.1766-2.1127 2.4758-3.3312 1.798-1.8255-1.0155 2.361-4.4116 10.052-9.9104 16.337-11.682 11.326-3.1915 39.572-3.7481 50.107-0.98744l2.8439 0.74526-1.7372-3.382c-0.95547-1.8601-4.1878-7.1121-7.1829-11.671-3.9632-6.0326-5.8978-8.1569-7.1067-7.8033-0.91359 0.26721-3.4611 0.78819-5.6611 1.1577-7.9892 1.342-20.762 4.5905-27.8 7.0705-3.9597 1.3952-8.8001 2.8717-10.756 3.2809s-5.0629 1.4954-6.9036 2.4137-3.8829 1.6696-4.5382 1.6696c-1.7141 0-4.5933 3.4548-4.6987 5.6381-0.14701 3.0442 1.2207 50.236 1.6915 58.362 0.23897 4.125 0.69426 12.9 1.0118 19.5 0.63181 13.134 1.9668 29.995 3.4838 44 0.53616 4.95 0.99558 13.725 1.0209 19.5 0.09588 21.84 4.9058 66.989 8.8957 83.5 2.4997 10.345 3.3944 16.507 2.392 16.474-1.1806-0.03797-14.614-13.193-23.98-23.485-7.4189-8.1514-12.272-14.137-16.348-20.162-0.80843-1.195-5.5293-7.495-10.491-14-9.6341-12.631-26.479-37.557-26.479-39.181 0-0.53872-0.39171-1.1295-0.87046-1.3128-1.1086-0.42451-17.569-30.652-23.711-43.542-2.5659-5.3851-6.8269-14.352-9.4689-19.926s-5.9212-13.674-7.287-18-4.3698-12.365-6.6754-17.865c-4.4887-10.708-21.962-62.7-23.861-71-3.0489-13.325-4.3026-24.192-5.7104-49.5-1.4948-26.874-1.2825-35.938 1.2626-53.891l0.6225-4.391-4.0201 4.391c-2.2111 2.4151-4.3556 5.516-4.7655 6.891s-1.5403 3.4-2.5118 4.5c-1.6388 1.8554-4.8286 6.8208-18.866 29.368-2.9495 4.7374-8.2897 14.243-11.867 21.123s-7.306 13.64-8.2857 15.021c-2.1462 3.0262-10.984 20.072-10.984 21.185 0 0.43338 4.1625 2.7378 9.25 5.1209 8.8322 4.1373 12.758 7.008 11.417 8.349-0.34009 0.34008-1.2101 0.12719-1.9334-0.47309-1.8465-1.5325-20.717-6.3218-21.937-5.5676-1.1723 0.72452-4.7421 8.2945-4.7743 10.124-0.01504 0.85588 1.791 1.2548 5.728 1.2653 5.387 0.01435 9.3735 1.1945 8.154 2.414-0.29593 0.29593-3.4329 0.81919-6.971 1.1628s-7.224 1.0437-8.1909 1.5557c-2.5121 1.3304-9.8922 10.913-9.4259 12.239 0.42763 1.216 3.8729 0.91322 4.6968-0.41271 0.71086-1.144 15.114-7.9746 16.816-7.9746 0.82044 0 1.1505 0.61156 0.80959 1.5-0.35768 0.93212 0.00591 1.5 0.9604 1.5 1.0809 0 1.3479 0.59254 0.90123 2-0.67455 2.1253-0.22468 2.3122 5 2.0767 2.8322-0.12763 2.8942-0.05169 1.1082 1.358-1.0405 0.82124-2.3905 1.7001-3 1.9531-1.5173 0.62971 1.3353 2.5771 3.804 2.5969 2.4327 0.01948 11.425 5.2363 9.9012 5.7442-0.63787 0.21262 1.3983 3.7648 4.6288 8.0754 3.1722 4.2327 7.6329 11.537 9.9127 16.231 4.2636 8.7791 4.8468 10.517 3.1852 9.4896-1.0983-0.67876 0.75782 5.4526 2.0964 6.9252 0.47494 0.5225 0.835 2.3225 0.80013 4-0.05469 2.6316-0.18525 2.7756-0.95169 1.05-0.48856-1.1-1.8175-3.125-2.9532-4.5l-2.0649-2.5 0.92044 2.5c0.50624 1.375 1.8637 4.6748 3.0166 7.3329 2.3578 5.4362 2.4106 5.6671 1.297 5.6671-0.43951 0-1.3686-1.575-2.0647-3.5s-1.6865-3.5-2.2009-3.5c-1.2432 0-1.281-0.22331 1.473 8.6984 3.8236 12.387 5.4244 19.893 7.1836 33.687 1.3823 10.838 1.4625 14.79 0.50483 24.878-1.0715 11.286-3.2148 22.724-5.1039 27.237-0.46045 1.1-1.1202 3.2951-1.4662 4.8781-1.9212 8.7908-20.964 29.708-31.163 34.232-6.7285 2.9842-20.535 4.5383-21.822 2.4563-1.1036-1.7856-0.10702-2.3059 5.4368-2.8386 2.7621-0.2654 5.022-0.92778 5.022-1.472s-0.94489-0.74231-2.0998-0.44031-5.9924-0.12198-10.75-0.94218c-6.7884-1.1703-9.1884-2.044-11.15-4.059l-2.5-2.5677 2.5 0.69406c7.1246 1.978 9.1878 2.1485 17.275 1.428 4.8262-0.42997 9.2342-1.0656 9.7956-1.4126 0.57698-0.35659-1.3228-3.3097-4.3703-6.7936-2.965-3.3895-5.8923-7.1116-6.505-8.2713-0.79424-1.5032-2.4685-2.2942-5.8316-2.7551-5.0723-0.69523-8.5418-3.0085-7.7208-5.1478 0.41373-1.0782 1.1863-1.0401 4.1673 0.20544 7.155 2.9896 15.111 0.62549 26.753-7.9492 10.187-7.5034 14.9-17.274 11.444-23.73-2.4882-4.6492-12.561-4.9827-21.76-0.72041-7.7966 3.6122-19.247 13.254-19.247 16.207 0 0.65421-0.93374 2.0345-2.075 3.0673-2.063 1.8669-2.0708 1.8606-1.3597-1.095 1.0036-4.1711 2.8807-7.6615 5.2952-9.8466 1.8566-1.6802 1.9276-2.1354 0.70208-4.5052-0.74976-1.4499-2.1345-7.5548-3.0772-13.566-1.4298-9.1181-1.6369-15.832-1.2489-40.492 0.45524-28.938 0.71972-31.619 4.4299-44.9 0.82013-2.9358 1.2822-5.5468 1.0269-5.8021-0.64759-0.6476-12.436 9.2796-13.541 11.403-0.49709 0.95538-3.0119 8.2621-5.5885 16.237s-5.8216 17.875-7.2111 22-3.1945 9.975-4.0111 13c-0.81661 3.025-2.1276 7.4282-2.9134 9.785-1.9949 5.9836-1.78 16.512 0.5155 25.255 1.0693 4.0727 1.7368 7.6123 1.4833 7.8657-0.89195 0.89194-2.4591-1.5726-4.2702-6.7153-2.1186-6.016-3.6629-8.0563-2.7934-3.6906 1.4663 7.3627 1.8095 12.725 0.77334 12.085-0.58284-0.36022-1.3522-2.2142-1.7097-4.1199s-0.95021-3.4649-1.3171-3.4649c-0.99091 0-3.8684 10.329-5.5719 20-0.82345 4.675-1.9612 10.075-2.5284 12-2.6268 8.915-5.5517 30.201-6.5268 47.5-0.31004 5.5-0.82168 11.912-1.137 14.25-0.69688 5.1664 0.6228 5.5116 3.8228 1 3.5875-5.058 14.136-14.725 16.081-14.738 0.9625-0.00641 1.75 0.21055 1.75 0.48213s-3.0991 3.5341-6.8869 7.25-8.7998 8.9928-11.138 11.726l-4.2511 4.9702 0.67467 12.78c0.58065 10.999 0.4654 12.78-0.82689 12.78-0.82586 0-2.0297-0.98683-2.6752-2.193s-2.285-3.3436-3.6434-4.75l-2.4698-2.557 0.5957 15c0.32763 8.25 0.76502 16.125 0.97198 17.5 1.3556 9.0067 8.1827 24.59 14.275 32.583 10.574 13.873 36.634 39.058 56.308 54.417 3.8748 3.025 7.0496 5.8169 7.0553 6.2042s2.1478 2.3162 4.7602 4.2863c6.7403 5.0831 21.917 19.411 49.149 46.4 24.218 24.001 37.508 35.035 47.012 39.03 4.7736 2.0064 6.6003 2.2176 15.5 1.7928 12.638-0.60329 35.68-3.8532 50.089-7.0648 6.05-1.3485 15.05-3.1996 20-4.1135s11.925-2.5008 15.5-3.5264c8.355-2.3968 15.679-3.1 16.905-1.6231 1.1463 1.3812 4.6326 14.464 6.1109 22.931 1.2191 6.983 3.8459 15.684 4.7349 15.684 0.32437 0 7.8257-2.4554 16.67-5.4565zm-140.39-153.91c-0.74901-0.74901-0.3831-6.3191 0.48734-7.4186 0.12605-0.15921 2.3784 0.85329 5.0053 2.25s5.4966 2.5584 6.3772 2.5814 3.1761 0.92082 5.1011 1.995l3.5 1.9531-9.775-0.22008c-5.3763-0.12105-10.189-0.63445-10.696-1.1409zm57.987-0.96583c0.2841-0.29135 9.2841-2.3266 20-4.5228 36.924-7.5675 49.103-11.839 53.108-18.626 1.7144-2.9058 2.6548-3.5618 4.7564-3.318 3.987 0.46245 4.1136 4.7895 0.23555 8.0527-7.6241 6.4153-42.055 15.098-72.616 18.313-3.3 0.34712-5.7676 0.39275-5.4834 0.10141zm106.54-77.913c1.9095-6.2065 10.689-27.785 11.512-28.293 2.1112-1.3048 1.7724 2.4912-0.92062 10.315-3.2925 9.5653-3.8999 9.7155 9.8414-2.4342 8.4961-7.512 13.009-10.4 13.009-8.3241 0 0.67299-7.4411 8.1574-12.414 12.487-0.63183 0.55-5.2814 4.9375-10.332 9.75-9.4355 8.9899-11.928 10.504-10.696 6.5zm25.443-1.3533c0-2.1371 11.707-14.033 15.258-15.504 5.5306-2.2909 4.0998 0.41854-4.5918 8.695-9.0129 8.5824-10.666 9.6378-10.666 6.8086zm16-2.2433c0-1.4558 7.0219-8.1534 8.5481-8.1534 2.3028 0 1.7234 1.3951-2.2148 5.3333-3.4446 3.4446-6.3333 4.7309-6.3333 2.8201zm-75.965-1.9034c0.15976-3.3816 15.032-19.25 18.041-19.25 2.0227 0 0.55528 1.9583-8.0862 10.791-8.7499 8.9436-10.029 10.031-9.9551 8.4589zm17.015-1.8819c2.9958-7.8797 22.019-26.632 24.5-24.152 0.44416 0.44417-23.362 26.088-24.713 26.619-0.46917 0.18479-0.37332-0.92577 0.213-2.4679zm-306.7-2.8901c-0.76803-2.0015 6.3171-12.452 14.731-21.728 5.9589-6.5694 7.9154-7.9543 7.9154-5.603 0 1.0619-4.9861 7.6696-9.3214 12.353-1.0182 1.1-2.8074 3.35-3.9759 5-2.2056 3.1145-1.9466 2.9874 4.9734-2.4404 5.5536-4.356 8.0634-3.5513 3.2115 1.0297-5.1768 4.8878-12.018 10.395-14.652 11.794-1.8879 1.0029-2.3675 0.93545-2.882-0.40517zm17.647 0.28935c0-2.4443 5.3529-9.2561 14.551-18.517 13.8-13.894 15.02-11.834 1.7159 2.8955-3.172 3.5119-7.2737 8.2986-9.1148 10.637-3.739 4.7488-7.1525 7.1278-7.1525 4.9849zm259-0.54621c0-3.0615 16.946-18.221 20.368-18.221 1.38 0 0.52287 2.9639-1.2126 4.1933-2.3861 1.6903-12.904 10.649-15.916 13.557-2.8125 2.7151-3.2398 2.7772-3.2398 0.47111zm-234-1.4939c0-2.1104 16.285-18.297 20.75-20.625 4.3974-2.2925 2.2886 0.96366-6 9.2643-9.4433 9.457-14.75 13.544-14.75 11.36zm21.503-1.7224c-0.67072-1.0852 0.12175-2.4711 3.845-6.7239 2.8368-3.2404 3.88-1.7813 1.5499 2.1679-2.6032 4.4121-4.4959 6.0106-5.3948 4.5561zm-30.503-0.85471c0-1.2379 5.299-8.2545 8.3605-11.071 3.7848-3.4814 4.389-1.8328 0.96177 2.6245-1.6054 2.0879-3.695 5.0336-4.6436 6.5461-1.6086 2.5648-4.6787 3.8116-4.6787 1.9zm509.59 172.35c2.9616-3.3 5.3838-6.345 5.3826-6.7667s1.5145-2.2217 3.3682-4c18.384-17.637 23.926-23.336 27.457-28.233 0.3965-0.55 3.014-3.925 5.8166-7.5 8.2007-10.46 13.847-19.105 16.329-25 1.2736-3.025 3.5632-8.2 5.088-11.5s3.7643-9.375 4.9765-13.5 2.559-8.625 2.993-10 1.3478-5.2 2.0308-8.5 1.8596-7.9384 2.6147-10.307 2.056-8.8941 2.891-14.5 1.731-10.883 1.9913-11.727c2.5245-8.1858 3.6734-66.357 1.9151-96.966-0.3949-6.875-0.4679-12.275-0.1622-12 1.0002 0.89977 4.132 25.288 4.4303 34.5 0.9158 28.287 1.0556 61.732 0.2778 66.5-0.4935 3.025-1.3584 10.908-1.9221 17.518-0.9355 10.968-4.7349 32.541-7.0387 39.965-0.515 1.6596-1.6714 7.0675-2.5698 12.018-1.6208 8.9312-5.2476 22.017-11.779 42.5-1.5366 4.819-5.6617 14.974-8.7334 21.5-3.5833 7.6128-8.9246 21.851-8.3956 22.38 0.6555 0.65546 9.4529-8.6731 9.4529-10.024 0-0.53619 0.45-0.69677 1-0.35685s1 0.08854 1-0.55863 1.8709-3.0362 4.1575-5.309c5.3892-5.3568 18.87-21.75 30.74-37.382 3.4456-4.5375 6.8189-8.25 7.4963-8.25 2.0447 0 6.08-4.9021 13.994-17 4.1377-6.325 9.5933-14.425 12.124-18s6.5986-9.65 9.0408-13.5 5.1411-7.9 5.9978-9c2.027-2.6026 9.4423-18.139 13.961-29.25 1.9571-4.8126 3.9825-9.6502 4.5008-10.75 10.42-22.115 11.108-77.176 1.5805-126.5-0.7968-4.125-1.7046-9.75-2.0175-12.5-0.7091-6.2339-1.8444-12.107-5.6057-29-0.4899-2.2-2.0563-10.3-3.481-18s-3.0503-16.475-3.6126-19.5c-1.2417-6.6804-3.4491-14.635-6.1051-22-2.2804-6.3235-6.1269-20.05-8.7264-31.14-0.9849-4.2022-2.0892-8.1232-2.4539-8.7133-0.623-1.0081-2.5166-8.9762-6.5701-27.646-4.6511-21.423-13.501-48.544-19.904-61-3.2995-6.4181-10.102-21.541-12.319-27.387-2.4397-6.433-3.4715-8.0076-17.71-27.027-6.6419-8.8723-16.05-16.139-31.547-24.368-6.0279-3.2007-13.678-7.8418-17-10.314-10.018-7.4538-33.093-20.651-49.54-28.333-8.525-3.9816-16.218-7.8836-17.096-8.6711s-7.1778-3.0421-14-5.0102c-15.158-4.3728-27.239-7.8924-31.904-9.2945-1.925-0.57856-7.1-1.9764-11.5-3.1064s-12.22-3.1649-17.378-4.5221-9.5416-2.4676-9.7413-2.4676-1.6045-1.2643-3.1218-2.8095-4.2212-3.8258-6.0087-5.0681-3.25-3.0623-3.25-4.0445-1.0125-2.8876-2.25-4.2341-3.5658-4.1848-5.174-6.3074-10.383-11.389-19.5-20.592-19.801-20.043-23.744-24.089-10.583-10.056-14.756-13.356-10.714-8.475-14.533-11.5c-16.607-13.152-18.994-14.803-31.946-22.085-8.5225-4.792-20.552-11.179-27.597-14.652-3.85-1.8979-7.675-4.0481-8.5-4.7781-0.825-0.73005-3.7526-2.213-6.5058-3.2955s-8.3782-3.5245-12.5-5.4267-9.0692-3.951-10.994-4.5528-7.55-2.4664-12.5-4.1437c-12.554-4.2536-25.596-6.9375-38.764-7.9773-13.029-1.0288-46.382-0.3783-52.236 1.0187-6.4281 1.5341-7.1374 1.6394-26 3.8589-9.9 1.1649-19.575 2.5208-21.5 3.0131s-8.9 1.4021-15.5 2.0218c-16.28 1.5286-48.281 6.3346-60.154 9.0339-2.2845 0.5194-5.8845 1.1944-8 1.5s-4.9714 0.95472-6.3464 1.4424-6.1 1.6482-10.5 2.5788c-21.972 4.6471-65.521 17.701-79.5 23.83l-3.5 1.5346 5.5739 0.03914c3.0656 0.02153 10.041 0.67059 15.5 1.4424s15.551 1.9315 22.426 2.5771c17.557 1.6488 42.62 4.8229 48.22 6.107 2.5962 0.59527 5.7462 1.2027 7 1.3498 5.102 0.5987 11.601 1.8127 17.118 3.1978 3.211 0.80609 9.736 2.3126 14.5 3.3477s18.349 4.3482 30.189 7.3624 25.34 6.0146 30 6.6675 19.273 3.8116 32.473 7.0194 26.925 6.3312 30.5 6.941c10.597 1.8075 46 12.659 46 14.1 0 0.48235-1.4625 0.55075-3.25 0.152-5.1653-1.1522-39.006-0.80985-53.25 0.53878-11.405 1.0799-19.284 2.1748-45 6.2539-3.3 0.52344-7.125 1.2078-8.5 1.5209s-6.325 1.2085-11 1.99c-9.5517 1.5966-21.12 4.1609-41.082 9.1065-7.4702 1.8507-14.339 3.365-15.264 3.365s-2.4629 0.42482-3.4179 0.94404c-1.7394 0.94564-6.4963 2.4279-24.236 7.552-5.225 1.5092-12.875 3.8243-17 5.1446-22.239 7.1181-28.78 9.2781-31.5 10.401l-6 2.4823c-1.65 0.68379-6.825 2.6026-11.5 4.2641-19.16 6.8092-28.028 10.2-35.149 13.441-14.389 6.5486-34.497 16.273-35.851 17.337-0.825 0.64864-4.875 2.8334-9 4.8551s-9.975 5.2092-13 7.0834-8.875 5.1535-13 7.2873-10.2 5.619-13.5 7.7448-8.025 4.9264-10.5 6.2234c-7.2939 3.8223-13.305 7.4908-18.826 11.489-2.8481 2.0625-5.451 3.75-5.7842 3.75-0.82046 0-12.525 7.9522-25.89 17.589-10.439 7.5277-16.516 12.131-29.584 22.411-3.1464 2.475-6.6508 5.1518-7.7876 5.9486-4.3828 3.0716-3.2664 3.9067 3.1933 2.389 18.051-4.2411 23.726-5.4622 40.678-8.7526 26.323-5.1093 27.362-5.2969 39-7.0416 5.775-0.86577 12.75-2.0093 15.5-2.5412 14.579-2.8198 37.837-5.7024 52.5-6.5068 4.675-0.25646 12.775-0.94487 18-1.5298s11.949-0.91007 14.943-0.72256c5.9092 0.37015 5.9916 0.32002 17.664-10.743 10.279-9.7423 29.436-26.525 40.806-35.749 3.898-3.1622 10.012-8.1648 13.587-11.117s8.975-6.8525 12-8.6676c3.025-1.8151 6.2338-3.9211 7.1306-4.68s3.1468-2.1776 5-3.1525 5.0706-2.7538 7.1498-3.9531 4.319-2.1805 4.9773-2.1805c2.17 0-3.6238 4.7688-11.758 9.6775-4.4 2.6554-13.804 9.5517-20.899 15.325s-14.294 11.596-16 12.939c-8.2187 6.4694-36.911 33.19-48.893 45.532-10.329 10.64-28.136 33.655-30.011 38.789-0.35415 0.96936-2.7536 4.9944-5.3322 8.9445-10.701 16.393-31.266 60.527-38.113 81.793-11.836 36.763-17.844 69.425-20.232 110-0.56648 9.625-1.296 20.2-1.6211 23.5-1.5614 15.847-2.5955 90.513-1.4266 103l0.56167 6 1.6063-3c0.88348-1.65 1.9432-4.125 2.355-5.5s3.1688-7.5986 6.1267-13.83 5.3781-11.544 5.3781-11.806 2.4311-4.6128 5.4024-9.6697 7.5275-13.469 10.125-18.694 6.5075-13.1 8.689-17.5 4.9661-9.35 6.1878-11 5.0791-8.175 8.5719-14.5 8.023-13.975 10.067-17c2.044-3.025 6.7152-10 10.38-15.5s10.941-16.075 16.167-23.5c5.2268-7.425 11.17-15.976 13.206-19.002s5.0454-7.2563 6.6863-9.4005 4.7909-6.694 7-10.111c7.2197-11.166 9.6048-14.603 12.016-17.315 1.3066-1.4696 3.6413-4.5481 5.1882-6.8411s4.1626-5.6709 5.8126-7.5065c5.8386-6.4953 8.5-10.725 8.5002-13.508 2e-4 -3.1912 2.3566-16.085 4.4442-24.317 0.76711-3.025 1.9472-8.2 2.6224-11.5 3.8286-18.712 8.7744-34.013 21.495-66.5 5.9066-15.085 14.319-33.269 15.651-33.833 0.43272-0.18334 0.78676-0.93055 0.78676-1.6605 0-1.868 7.0646-14.284 14.518-25.516 8.6239-12.996 26.101-30.292 36.482-36.105 1.925-1.0779 5.3-3.0466 7.5-4.3748 5.9882-3.6153 6.379-3.7708 7.957-3.1652 1.9653 0.75416-4.0595 7.6549-6.6832 7.6549-1.022 0-2.4017 0.45537-3.066 1.0119s-3.0078 2.3873-5.2078 4.0683c-15.172 11.593-33.653 32.323-37.595 42.17-0.60544 1.5125-1.3969 2.75-1.7588 2.75s-1.2594 1.4625-1.9943 3.25-2.6448 6.0052-4.2441 9.3727-2.9077 6.5175-2.9075 7-1.3068 3.5773-2.9045 6.8773-4.0206 8.925-5.3843 12.5c-6.8258 17.894-9.1562 24.239-11.937 32.5-1.6662 4.95-4.2892 12.152-5.8287 16.004s-3.5102 11.052-4.3792 16-2.505 11.921-3.6354 15.496c-3.5597 11.257-5.9381 25.731-8.3807 51-0.8772 9.075-1.9813 20.1-2.4535 24.5-1.2587 11.727 0.07206 63.201 2.0294 78.5 0.52774 4.125 1.1852 12.45 1.461 18.5s0.69274 12.35 0.92656 14 0.89733 7.6065 1.4745 13.237 1.9022 14.63 2.9446 20 2.2043 12.456 2.5822 15.747c1.5052 13.11 10.631 47.703 12.176 46.158 0.22161-0.22161 0.41299-3.5877 0.42529-7.4802 0.04929-15.595 3.6364-48.286 6.7661-61.661 2.8188-12.047 4.0847-18.213 4.1057-20 0.01294-1.1 0.61255-3.1286 1.3325-4.5079 1.9494-3.7351 1.1348-23.218-1.5234-36.434-1.9015-9.4536-2.3089-10.525-2.9954-7.8758-0.43698 1.6864-1.5419 3.6852-2.4554 4.4419-1.5147 1.2547-1.5974 1.0371-0.94022-2.4727 0.49184-2.6266 0.38289-3.6397-0.34314-3.191-0.58508 0.3616-1.0638 1.2362-1.0638 1.9434s-0.9 2.1005-2 3.096c-1.9309 1.7475-2 1.7466-2-0.02401 0-1.0087 0.4114-3.2159 0.91422-4.905s1.8945-6.3822 3.0926-10.429c2.2574-7.6253 12.162-28.018 16.582-34.142 4.3037-5.9622 17.7-19.254 24.691-24.5 6.3886-4.7932 9.7156-9.505 12.122-17.167 0.5888-1.8751 0.37175-2.0919-1.6106-1.609-1.2601 0.30699-3.0813 1.2419-4.0472 2.0777s-2.0534 1.2223-2.4167 0.85898-0.13553-0.66054 0.50613-0.66054 1.1667-0.5673 1.1667-1.2607 2.5026-3.2577 5.5614-5.6984c4.4559-3.5556 6.2465-5.9206 9.0082-11.898 1.8957-4.103 3.2871-7.6198 3.0919-7.815-0.88666-0.88667-24.935-0.44052-31.653 0.58724-8.3826 1.2823-20.006 5.6086-30.508 11.356l-7 3.8305 5.417-5.5014c5.752-5.8416 19.22-13.273 32.083-17.702 6.9542-2.3946 21.424-3.1543 31.5-1.6538 5.6511 0.84158 4.7213 1.7728 12.226-12.245 1.9141-3.575 4.1087-6.9996 4.8769-7.6102s1.3966-1.6532 1.3966-2.3167 1.0728-2.639 2.3839-4.3898 2.7097-4.3083 3.1078-5.6833 2.7755-6.325 5.283-11 5.3415-10.075 6.2978-12c4.593-9.246 37.556-60.035 39.907-61.488 0.54642-0.33771 1.9298-3.8537 3.0741-7.8133 3.368-11.654 6.969-21.859 9.5421-27.042 1.3222-2.6632 2.404-5.544 2.404-6.4017s2.025-5.0702 4.5-9.3611 4.5006-8.1601 4.5012-8.5983 1.1384-2.1189 2.5282-3.735 2.7799-3.9461 3.089-5.1776 1.1964-2.4827 1.9718-2.7802 1.4098-1.009 1.4098-1.581c0-2.5025 11.597-16.023 13.743-16.023 0.6913 0 1.2569 0.24293 1.2569 0.53984 0 1.1287-3.9994 8.3167-5.4151 9.7324-5.2924 5.2924-20.304 33.543-23.095 43.461-0.89224 3.1716-2.9489 9.8165-4.5704 14.766s-2.9418 10.018-2.934 11.263-0.87437 5.4687-1.9602 9.3871-1.7739 7.4487-1.529 7.845 0.02517 2.1855-0.48833 3.976-1.6459 10.067-2.5164 18.392c-3.0057 28.746 1.4669 83.744 8.3873 103.14 0.58882 1.65 2.7038 8.4 4.6998 15s4.965 15.6 6.5976 20c4.3783 11.8 8.905 23.461 10.87 28 3.4535 7.9793 7.8061 19.089 9.0112 23 0.67783 2.2 1.508 4.225 1.8449 4.5 0.7003 0.5717 9.2233 18.74 11.251 23.983 3.8202 9.879 12.473 25.043 28.532 50.001 2.6484 4.116 5.002 7.9388 5.2302 8.495s1.9158 3.1465 3.75 5.7561 3.335 5.1618 3.335 5.6717 0.3375 1.0769 0.75 1.2603 2.3018 2.5833 4.1985 5.3333 3.6992 5.225 4.0057 5.5 1.8971 2.3 3.5347 4.5 3.7347 4.9 4.6601 6c7.5439 8.9672 8.7069 10.712 8.1346 12.203-0.39619 1.0324-0.22485 1.3785 0.46991 0.94915 0.60414-0.37338 2.0994 0.73694 3.3414 2.4811s4.4798 5.4541 7.2077 8.2618l4.9598 5.1048-0.57899-6c-0.31845-3.3-1.0385-9.825-1.6002-14.5s-1.2613-11.65-1.5547-15.5c-0.59616-7.8215-1.9582-20.946-3.4246-33-0.53528-4.4-1.2248-11.15-1.5323-15s-1.0387-12.625-1.6249-19.5c-1.1774-13.809-1.5642-21.629-2.4237-49-1.3796-43.933-2.7216-77.608-4.304-108-0.44388-8.525-0.69678-20.675-0.562-27s0.54878-31.656 0.91999-56.291c0.46374-30.775 1.006-44.681 1.733-44.439 0.58193 0.19397 2.9371 5.7251 5.2336 12.291 4.4038 12.591 10.547 26.581 14.245 32.439 1.2151 1.925 2.7236 5.075 3.3522 7 1.2783 3.9149 6.5554 13.921 11.339 21.5 1.7356 2.75 5.5409 9.725 8.4562 15.5s6.7579 12.3 8.539 14.5 4.2158 5.8 5.4103 8 2.9466 5.173 3.8936 6.6067l5.5771 8.434c2.1204 3.205 4.3301 6.8695 4.9105 8.1433 1.2681 2.7831 5.9221 3.0641 15.077 0.9101 11.427-2.6886 58.116-1.802 74.157 1.4081 2.75 0.55032 10.625 2.1042 17.5 3.453s14.75 3.1434 17.5 3.9878 5.2947 1.5402 5.6549 1.5461c0.718 0.01186 0.217-5.4496-1.2831-13.989-0.5315-3.025-1.8347-10.675-2.8962-17s-3.2669-15.55-4.9008-20.5c-1.8725-5.673-2.6203-9.3512-2.0227-9.95s1.291-0.6 1.8791 0c1.0946 1.1168 7.5689 22.173 8.5971 27.96 0.3899 2.1944 1.5263 7.5899 2.5253 11.99s2.1221 11.15 2.4958 15c0.4846 4.9931 1.27 7.6451 2.7393 9.25 1.3492 1.4737 1.6079 2.25 0.7497 2.25-1.0025 0-1.1326 1.1154-0.554 4.75 4.9084 30.829 6.3231 45.733 7.3327 77.25 0.7039 21.972 0.9019 68.005 0.342 79.5-2.4138 49.56-3.0141 64.926-2.5646 65.653 0.2938 0.47539-0.1758 6.373-1.0436 13.106s-1.7711 16.066-2.0073 20.741c-0.4456 8.8166-4.1391 39.082-5.172 42.38-0.3238 1.0339-0.7477 3.0589-0.942 4.5-0.4029 2.9892-0.7075 4.7206-3.9788 22.62-1.3067 7.15-3.0856 16.32-3.9531 20.377s-1.3939 7.5602-1.1699 7.7842c0.6102 0.61023 7.1557-10.144 11.358-18.661 2.0353-4.125 5.8636-10.796 8.5073-14.823s4.8068-7.5108 4.8068-7.7398 2.0129-3.5566 4.473-7.3946 4.7542-8.0992 5.0981-9.4692 1.256-3.0146 2.0271-3.6545 1.4018-1.6284 1.4018-2.1966 1.0603-2.4256 2.3562-4.1276 2.7009-4.2194 3.1223-5.5944 1.1037-2.95 1.5161-3.5c1.0203-1.3608 17.579-33.201 22.103-42.5 3.3295-6.8444 10.894-27.964 10.908-30.457 0.0034-0.57365 0.6931-2.3603 1.5327-3.9703s2.3808-6.11 3.4249-10c1.7381-6.4754 4.3158-14.948 8.5408-28.073 3.0722-9.5438 8.4822-32.018 8.4888-35.264 0.0036-1.795 0.4413-4.045 0.9727-5 1.5291-2.7484 4.9608-22.922 6.5472-38.489 0.7985-7.8362 1.9452-35.399 2.5481-61.25 0.9507-40.761 0.8866-49.504-0.4826-65.846-0.8683-10.364-1.5402-20.938-1.4931-23.498l0.0857-4.6544 1.851 7.1607c1.0181 3.9384 2.5692 12.488 3.4469 19s2.2491 15.439 3.0477 19.839c1.4923 8.222 2.6731 45.572 2.5293 80-0.0571 13.647-0.5711 20.66-2.1255 29-1.1276 6.05-2.6871 15.5-3.4657 21s-2.0927 13.794-2.9205 18.431-1.3568 8.5796-1.1758 8.7607 2.2147-0.33607 4.5193-1.1492c7.0507-2.4876 15.937-0.03186 23.052 6.3704 1.8866 1.6976 3.6997 3.0866 4.0292 3.0866 2.0279 0 8.4223 8.3056 13.561 17.614 10.058 18.22 10.287 18.885 13.525 39.226 1.6532 10.385 0.2547 21.949-4.192 34.66-0.5772 1.65-1.4105 4.575-1.8518 6.5s-1.7471 6.0763-2.9019 9.225-2.0996 6.244-2.0996 6.8783-1.4581 3.683-3.2402 6.775-4.4938 8.7188-6.0261 12.504-3.7867 8.2677-5.0098 9.961-4.0239 6.0705-6.2239 9.7272c-19.416 32.272-42.878 51.669-68.86 56.932-16.516 3.3453-28.962 2.4084-40.186-3.0252-2.507-1.2136-4.6729-2.0425-4.8131-1.8421s-1.638 2.1645-3.3285 4.3645-4.5461 6.8125-6.3457 10.25-3.6417 6.25-4.0936 6.25-1.56 1.4281-2.4626 3.1736c-1.3648 2.6392-1.543 5.207-1.058 15.25 0.6033 12.493 1.4334 18.576 2.5349 18.576 0.3504 0 4.1603-1.1182 8.4664-2.4849s11.726-3.1793 16.488-4.0281c9.061-1.6149 25.264-4.8299 33.468-6.6409 2.6454-0.58391 7.2035-0.76259 10.129-0.39706 11.045 1.3799 13.797 9.661 12.313 37.051-0.0596 1.1-0.0161 4.25 0.0967 7l0.205 5 4.074-4.5c2.2407-2.475 6.4971-7.2 9.4587-10.5zm-76.542 3.3501c6.3009-3.3825 15.056-8.0781 19.456-10.435s8.9-5.0127 10-5.9024c1.8739-1.5155 1.527-1.5856-5.5-1.1112-5.6154 0.37911-10.641 1.6804-20 5.1787-6.875 2.5698-13.4 4.783-14.5 4.9183s-2.5625 0.30342-3.25 0.37362c-1.3285 0.13564-1.8464 11.198-0.5833 12.461 1.2802 1.2801 2.9999 0.62425 14.377-5.4833zm-512.24-31.1c3.0418-25.883 4.7209-36.761 7.7567-50.25 0.86647-3.85 1.9359-9.475 2.3766-12.5s1.7796-9.1 2.9755-13.5c1.7424-6.4107 1.9797-8.7946 1.1946-12-2.5956-10.598-2.9761-13.999-3.0584-27.344-0.04866-7.889 0.43525-19.346 1.0754-25.459 1.2547-11.983 0.95836-14.741-3.62-33.697-1.262-5.225-2.7894-12.425-3.3942-16-7.9182-46.802-8.6083-51.96-11.173-83.5-1.5939-19.605-2.7948-54.756-2.9192-85.45-0.00835-2.058-0.37247-3.0667-0.90246-2.5-1.2933 1.3829-7.9809 23.063-9.0919 29.475-0.52176 3.0111-1.6674 7.9497-2.5458 10.975s-2.1782 7.975-2.8884 11c-0.7102 3.025-2.2244 9.325-3.3649 14-4.2473 17.41-8.1292 37.747-8.6852 45.5-0.31556 4.4-1.0276 13.4-1.5824 20-1.5354 18.266-2.1403 57.153-0.99549 64 1.9485 11.654 5.0586 37.161 6.0965 50 0.57802 7.15 1.6812 15.925 2.4514 19.5 0.77024 3.575 2.8142 14.15 4.5422 23.5 2.9859 16.157 10.745 47.049 15.07 60 5.9461 17.804 8.378 24.5 8.8983 24.5 0.31827 0 1.1207-4.6125 1.7832-10.25zm550.82-53.555c8.1077-1.1099 24.66-8.4567 34.321-15.233 6.1063-4.2833 20.204-19.41 22.798-24.462 0.8472-1.65 2.8609-4.5158 4.475-6.3683 4.1249-4.7344 20.827-38.919 24.005-49.132 7.8071-25.088 9.375-40.301 5.8275-56.547-2.5018-11.457-4.2491-16.338-8.6938-24.286-7.5133-13.435-12.737-19.229-21.351-23.681-6.9678-3.6016-19.162-0.81883-19.797 4.5178-0.1635 1.3729-0.9036 3.8461-1.6448 5.4961-2.6208 5.8346-3.4016 8.0328-3.907 11-0.2811 1.65-0.8163 3.7891-1.1894 4.7536-0.5689 1.4704 0.0253 1.3513 3.6799-0.73795 6.2994-3.6012 13.249-3.4639 18.536 0.36602 4.7105 3.4123 10.34 10.924 12.664 16.897 2.8451 7.3132 5.1725 23.923 4.9622 35.413-0.2091 11.42-1.0321 15.722-4.8744 25.479-1.3364 3.3938-2.4316 7.4438-2.4336 9s-0.8459 4.2104-1.8751 5.8982-2.1988 4.1628-2.5989 5.5c-0.6605 2.2072-6.7569 14.964-10.546 22.069-1.5897 2.9805-5.7267 6.4449-6.6242 5.5473-0.5258-0.52575 1.3527-4.7092 6.5938-14.685 3.3267-6.332 8.2546-18.664 9.7902-24.5 0.5788-2.2 1.9508-7.15 3.0488-11 2.8547-10.009 3.6109-15.833 3.3116-25.5-0.4925-15.91-4.906-28.878-14.501-42.607-0.8099-1.1589-3.0655-2.8629-5.0123-3.7868-3.136-1.4881-3.8559-1.5152-6.3112-0.23797-3.0312 1.5769-5.9407 4.5855-8.6531 8.9478-0.963 1.5488-2.4733 3.6598-3.3564 4.6911-1.471 1.718-4.6862 10.391-5.8121 15.678-0.256 1.202-1.2943 4.127-2.3074 6.5s-3.3287 8.3602-5.146 13.305-5.0349 12.459-7.1502 16.698-3.8462 7.9924-3.8462 8.3404-2.864 6.3339-6.3644 13.302-6.7162 13.794-7.1461 15.169-1.746 4.075-2.9247 6c-1.1786 1.925-4.1013 8.225-6.4948 14s-5.052 11.625-5.9077 13-4.5955 8.5552-8.3106 15.956c-4.8658 9.6931-6.4671 13.802-5.7262 14.695 1.6326 1.9672 10.422 4.5078 18.214 5.2648 7.666 0.74474 7.5312 0.75006 18.278-0.72116zm-443.12-135.19c1.2606-0.54172 1.4455-0.85943 0.5-0.85943-0.825 0-2.4 0.38674-3.5 0.85943-1.2606 0.54172-1.4455 0.85943-0.5 0.85943 0.825 0 2.4-0.38674 3.5-0.85943zm303.71-8.4764c8.9204-4.2549 22.427-15.576 26.454-22.174 5.8371-9.5625 9.2763-24.938 9.3139-41.639 0.02406-10.674-0.04154-10.818-15.873-34.776-13.409-20.293-13.678-20.723-17.241-27.642-3.7065-7.1973-8.6039-13.824-11.195-15.147-3.3333-1.7025-10.981-3.1232-12.139-2.255-0.5682 0.42616-2.6081 1.3754-4.5331 2.1094-11.568 4.4111-23.917 21.528-31.162 43.195-2.809 8.3999-3.1568 10.814-3.574 24.806-0.45027 15.101 0.43547 21.922 2.6675 20.543 2.0288-1.2539 18.006-0.47589 25.569 1.245 13.02 2.9627 22.442 10.646 21.016 17.138-1.3779 6.2734-16.771 17.236-28.266 20.131-2.8999 0.73025-5.25 1.8933-5.25 2.5981s2.0221 3.2137 4.4935 5.5819c4.2106 4.0348 6.2605 4.9949 19.507 9.137 0.825 0.25798 4.0703 0.50458 7.2118 0.548 4.5598 0.06303 7.1818-0.62221 13-3.3974zm88.262-21.359c1.8893-14.269 1.9311-96.24 0.0585-114.67-1.2504-12.302-3.5652-39.78-5.1436-61.057l-0.5236-7.0572-7.1827-1.7917c-19.564-4.8802-41.559-7.4448-60.683-7.0755-24.825 0.47936-55.061 4.2705-54.957 6.8908 0.0541 1.3606 2.5767 5.5208 11.351 18.72 3.792 5.7041 8.4764 12.776 10.41 15.715s4.4559 5.7055 5.6055 6.147c28.246 10.848 56.976 26.391 66.322 35.88 6.3927 6.4906 12.23 14.714 9.3507 13.173-1.5995-0.85605-1.8073-0.7082-1.3676 0.97327 0.28516 1.0905 0.07839 1.9826-0.45949 1.9826s-0.7629 1.125-0.50005 2.5c0.60405 3.1599-0.48706 3.1582-4.1668-0.00636-1.6013-1.3772-3.072-2.3434-3.2682-2.1472s1.0397 3.686 2.7464 7.7551c4.3802 10.443 8.9524 22.783 9.969 26.905 1.2976 5.2607 0.553 18.564-1.0187 18.202-0.86454-0.19908-1.1071 0.53935-0.76504 2.3288 0.33013 1.727 0.00628 2.8101-0.94988 3.177-2.0896 0.80186-0.96425 4.3054 4.528 14.097 2.5684 4.579 6.5001 11.782 8.737 16.007 7.6548 14.458 8.8352 16.214 9.7727 14.539 0.4701-0.84 1.4305-5.8766 2.1344-11.192zm-376.55 9.374c4.8342-2.4998 11.259-17.475 13.004-30.314 1.5252-11.217 2.1852-37.258 1.1462-45.226-2.2767-17.459-3.5897-23.305-8.6783-38.634-4.7143-14.202-9.6407-22.918-14.905-26.371-2.7614-1.8115-2.9305-1.8117-6.4667-0.00762-7.2625 3.7051-10.418 15.895-11.528 44.535-0.5199 13.416 1.8391 46.37 3.5479 49.563 0.83194 1.5545 1.2671 1.5718 5.1814 0.20569 12.115-4.2282 20.784-2.1343 24.104 5.822 1.8062 4.3291 1.801 4.466-0.38914 10.317-2.2099 5.904-9.3116 14.213-16.33 19.106-3.3419 2.3299-3.0971 4.5448 1.0468 9.4696 2.8176 3.3485 5.874 3.8051 10.266 1.5337zm315.69-94.204c-3.4892-9.8895-9.5986-19.567-16.118-25.531-5.9575-5.4504-5.4069-3.5916 2.7801 9.3857 6.7775 10.743 13.913 20.952 14.343 20.521 0.2189-0.21889-0.23347-2.1878-1.0053-4.3752zm-383.54-14.096c2.0959-7.3289 1.9278-8.6987-0.59491-4.8485-1.8388 2.8064-3.4357 8.6847-3.4254 12.609 0.00588 2.2446 0.11505 2.3134 1.0686 0.67365 0.5841-1.0045 1.9124-4.8 2.9518-8.4345zm85.109-14.456c-0.71756-0.71756-1.1833-0.7766-1.1833-0.15 0 1.3348 1.1826 2.5174 1.85 1.85 0.28417-0.28416-0.01583-1.0492-0.66667-1.7zm166.32-59.783c2.3982-1.65 4.7432-3 5.2111-3s5.6743-2.4964 11.57-5.5476 10.719-5.2461 10.719-4.8776 0.6039 0.16882 1.342-0.44375 1.5744-0.88136 1.8585-0.59731 2.5144-0.33997 4.9564-1.3867 6.3306-2.2226 8.6415-2.613 4.2016-1.0746 4.2016-1.5204c0-1.0908-4.8743-10.234-9.0829-17.038-5.0453-8.1565-4.8-7.7767-13.167-20.391-4.2625-6.4264-7.75-11.953-7.75-12.281s-1.575-2.9693-3.5-5.8694-3.5-5.7368-3.5-6.3038-0.58718-1.3907-1.3048-1.8305c-1.5861-0.97206-4.1193-5.1308-9.8849-16.228-2.4084-4.6355-4.8644-8.5899-5.4577-8.7877-1.7515-0.58384-3.2159 4.5527-4.338 15.216-1.0958 10.414 0.07889 57.78 1.9345 78 0.50473 5.5 0.87676 10.675 0.82674 11.5-0.23904 3.9424 0.32616 7 1.2939 7 0.58841 0 3.032-1.35 5.4302-3z"/>
 </g>
</svg>
